<?xml version="1.0" encoding="UTF-8" standalone="no"?>
<svg viewBox="0 0 75 59" version="1.1" xmlns="http://www.w3.org/2000/svg" xmlns:xlink="http://www.w3.org/1999/xlink">
    <!-- Generator: Sketch 39.1 (31720) - http://www.bohemiancoding.com/sketch -->
    <title>logo</title>
    <g id="logo" stroke="#B3271E" stroke-width="1.6" fill="none" fill-rule="evenodd">
        <path d="M54.773,6.4853 L54.773,34.2613" id="Stroke-1"></path>
        <path d="M68.6609,20.3731 L40.8849,20.3731" id="Stroke-2"></path>
        <path d="M73.5588,56.6318 L73.5588,35.1088 C73.5588,35.1088 73.5588,33.5088 72.1778,34.3168 L57.1728,43.0848 L57.1728,37.4318 C57.1728,37.4318 57.1678,37.2878 57.1278,37.0928 C65.8248,35.4708 72.3998,28.0438 72.3998,19.1158 C72.3998,8.9998 63.9638,0.7998 53.5578,0.7998 C46.0838,0.7998 39.6458,5.0408 36.5998,11.1718 C33.5538,5.0408 27.1158,0.7998 19.6418,0.7998 C9.2358,0.7998 0.7998,8.9998 0.7998,19.1158 C0.7998,28.0348 7.3608,35.4558 16.0448,37.0888 C16.0248,37.1988 15.9998,37.3018 15.9998,37.4318 L15.9998,54.2858 C15.9998,54.2858 15.9998,55.8858 17.5998,55.8858 L55.5728,55.8858 C55.5728,55.8858 57.1728,55.8858 57.1728,54.2858 L57.1728,48.6568 L72.1778,57.4248 C72.1778,57.4248 73.5588,58.2318 73.5588,56.6318 L73.5588,56.6318 Z M45.8808,35.8318 L27.3188,35.8318 C31.3758,34.0678 34.6618,30.9528 36.5928,27.0738 C38.5258,30.9518 41.8228,34.0678 45.8808,35.8318 L45.8808,35.8318 Z" id="Stroke-3"></path>
        <path d="M19.4878,6.4 L19.4878,34.176" id="Stroke-5"></path>
        <path d="M33.3756,20.2878 L5.5996,20.2878" id="Stroke-6"></path>
    </g>
</svg>