<svg viewBox="0 0 75 59" xmlns="http://www.w3.org/2000/svg"><title>logo</title><g stroke="#B3271E" stroke-width="1.6" fill="none" fill-rule="evenodd"><path d="M54.773 6.485v27.776M68.66 20.373H40.886M73.559 56.632V35.109s0-1.6-1.381-.792l-15.005 8.768v-5.653s-.005-.144-.045-.34C65.825 35.472 72.4 28.045 72.4 19.117 72.4 9 63.964.8 53.558.8 46.084.8 39.646 5.04 36.6 11.172 33.554 5.04 27.116.8 19.642.8 9.236.8.8 9 .8 19.116c0 8.919 6.56 16.34 15.245 17.973-.02.11-.045.213-.045.343v16.854s0 1.6 1.6 1.6h37.973s1.6 0 1.6-1.6v-5.63l15.005 8.769s1.38.807 1.38-.793zm-27.678-20.8H27.319c4.057-1.764 7.343-4.88 9.274-8.758 1.933 3.878 5.23 6.994 9.288 8.758zM19.488 6.4v27.776M33.376 20.288H5.6"/></g></svg>